<svg width="50" height="50" viewBox="0 0 50 50" fill="none" xmlns="http://www.w3.org/2000/svg">
<g clip-path="url(#clip0_207_690)">
<path d="M32.4283 21.8501C33.2421 18.3535 36.3296 16.1201 36.3621 16.097C36.485 16.0095 36.578 15.8862 36.6282 15.7439C36.6784 15.6017 36.6835 15.4473 36.6427 15.3021C36.6019 15.1568 36.5172 15.0277 36.4002 14.9324C36.2832 14.8371 36.1397 14.7802 35.9892 14.7696C34.8611 14.697 33.7294 14.836 32.6524 15.1795C33.36 13.1601 34.6565 11.3991 36.3747 10.1237C36.4951 10.0341 36.5851 9.90964 36.6325 9.76717C36.6799 9.6247 36.6823 9.47111 36.6395 9.32721C36.5967 9.1833 36.5107 9.05603 36.3931 8.96262C36.2756 8.86922 36.1322 8.81419 35.9823 8.80499C34.6811 8.73517 33.3798 8.94121 32.1637 9.40959C32.1777 9.02946 32.2124 8.65036 32.2676 8.27398C32.4889 6.78986 33.0188 5.36859 33.8231 4.10185C33.9016 3.97713 33.9406 3.83166 33.935 3.68443C33.9295 3.5372 33.8797 3.39506 33.7921 3.27657C33.7046 3.15808 33.5833 3.06876 33.4442 3.02026C33.3051 2.97177 33.1545 2.96636 33.0123 3.00474C31.466 3.4205 30.0642 4.25429 28.9607 5.41458C28.5866 5.81005 28.2509 6.24006 27.9579 6.69885C27.4919 4.52644 26.7697 2.41702 25.8065 0.414844C25.7467 0.290577 25.653 0.185718 25.5363 0.11233C25.4195 0.0389417 25.2844 5.38413e-06 25.1465 0L25.1406 0C25.0017 0.00112602 24.8659 0.0417306 24.7493 0.117076C24.6326 0.192421 24.5397 0.2994 24.4815 0.425529C23.5501 2.44409 22.8233 4.55085 22.3119 6.71427C22.0309 6.25272 21.7051 5.81992 21.3394 5.42212C20.246 4.23887 18.8328 3.39827 17.2711 3.00226C17.1294 2.96604 16.98 2.97311 16.8423 3.02257C16.7046 3.07202 16.5849 3.16159 16.4985 3.27973C16.4122 3.39786 16.3632 3.53915 16.3579 3.68538C16.3526 3.8316 16.3913 3.97606 16.4688 4.10013C17.2697 5.37021 17.7998 6.79196 18.0258 8.27637C18.0869 8.6839 18.1245 9.09462 18.1384 9.50649C16.8368 8.94432 15.4189 8.70402 14.0048 8.80594C13.8567 8.81764 13.7157 8.87409 13.6004 8.9678C13.4852 9.06152 13.4011 9.18807 13.3594 9.33066C13.3178 9.47325 13.3205 9.62514 13.3671 9.76617C13.4138 9.9072 13.5023 10.0307 13.6208 10.1203C15.3393 11.4173 16.6522 13.1778 17.405 15.1949C16.3105 14.8379 15.1578 14.6936 14.0091 14.7697C13.8588 14.7807 13.7155 14.8378 13.5988 14.9332C13.4822 15.0286 13.3978 15.1577 13.3572 15.3029C13.3166 15.4481 13.3218 15.6022 13.372 15.7443C13.4223 15.8864 13.5151 16.0096 13.6379 16.097C13.6704 16.1201 16.7579 18.3535 17.5717 21.8501C16.527 22.5412 15.5835 23.3743 14.7685 24.3254C14.6725 24.3714 14.5878 24.4379 14.5204 24.5203C14.453 24.6027 14.4046 24.6989 14.3785 24.802C13.3495 26.1184 12.5786 27.6175 12.1065 29.2202C12.049 29.3225 12.0169 29.4372 12.0129 29.5545C11.7198 30.6602 11.5717 31.7993 11.5723 32.9432V36.6769C11.5717 37.8206 11.7198 38.9596 12.0128 40.0652C12.0166 40.1826 12.0487 40.2973 12.1064 40.3996C13.0928 43.7232 15.3287 46.5352 18.3445 48.2451C18.4603 48.3783 18.6204 48.4652 18.7952 48.4894C20.7119 49.4846 22.8404 50.0027 25 50C32.404 50 38.4277 44.0233 38.4277 36.6769V32.9432C38.4277 28.3202 36.0419 24.2403 32.4283 21.8501ZM34.8342 26.1994C35.5019 27.152 36.0248 28.1983 36.3859 29.3042C35.925 29.9545 35.4532 30.5981 34.9705 31.235C34.1798 30.5206 33.4073 29.7878 32.653 29.0367C33.4 28.1049 34.1271 27.1591 34.8342 26.1994ZM22.6637 32.9426C23.3254 32.2954 23.9729 31.6348 24.6062 30.9606C24.754 30.8032 24.9009 30.645 25.0471 30.486C25.6805 31.1507 26.3236 31.8046 26.9763 32.4476C27.1204 32.5896 27.2653 32.7309 27.4109 32.8716C27.1323 33.172 26.8519 33.4703 26.5698 33.7666C26.0593 34.3013 25.5412 34.8297 25.0155 35.3516C24.7102 35.0504 24.407 34.7474 24.1058 34.4427C23.6198 33.9492 23.1391 33.4491 22.6637 32.9426ZM23.9683 36.3762C23.2578 37.0595 22.5354 37.7311 21.8012 38.3909C21.6251 38.2149 21.4474 38.0401 21.2725 37.8634C20.6417 37.2263 20.0159 36.5813 19.395 35.9284C20.1464 35.2868 20.8828 34.6286 21.6041 33.954C22.085 34.4655 22.571 34.971 23.0621 35.4706C23.3616 35.7747 23.6637 36.0765 23.9683 36.3762ZM27.6294 34.778C27.9118 34.4821 28.1922 34.1838 28.4707 33.883C29.2779 34.6406 30.1003 35.3836 30.9379 36.1119C30.3713 36.7411 29.7951 37.3598 29.2092 37.968C28.9887 38.1966 28.7665 38.4238 28.5427 38.6495C27.7029 37.9053 26.8773 37.1464 26.066 36.3727C26.594 35.8471 27.1152 35.3156 27.6294 34.778V34.778ZM29.4583 32.8009C30.2291 31.9421 30.9839 31.0675 31.7227 30.1772C32.4869 30.9347 33.27 31.6745 34.0718 32.3966C33.3703 33.2853 32.6488 34.1577 31.9074 35.0139C31.0762 34.2914 30.2599 33.5538 29.4583 32.8009H29.4583ZM28.3985 31.7887C28.2668 31.6606 28.1354 31.5324 28.0042 31.4039C27.3358 30.7457 26.6777 30.0755 26.0299 29.3932C26.8316 28.4815 27.6085 27.5466 28.3604 26.5886C29.0494 27.3802 29.7548 28.1547 30.4766 28.9123C30.5463 28.9852 30.6178 29.0568 30.6879 29.1295C29.9422 30.0317 29.1791 30.9181 28.3985 31.7887H28.3985ZM28.3 24.2543C27.4736 23.251 26.6779 22.2246 25.9129 21.1749C25.9239 21.1573 25.9346 21.1395 25.9456 21.1219C27.2866 21.2258 28.6005 21.5552 29.8319 22.0964C29.3367 22.8255 28.8261 23.5448 28.3 24.2543H28.3ZM27.3913 25.4505C26.6297 26.4295 25.8407 27.3851 25.0245 28.3174C24.2304 27.4527 23.4539 26.5715 22.6948 25.6739C23.5312 24.6492 24.3202 23.5869 25.0618 22.4871C25.8098 23.4954 26.5862 24.4832 27.3913 25.4505L27.3913 25.4505ZM21.7406 24.5245C21.119 23.7631 20.5109 22.9918 19.9161 22.2106C21.2239 21.5993 22.6318 21.2299 24.0713 21.1204C24.0952 21.1544 24.1201 21.1878 24.1441 21.2218C23.3971 22.3608 22.596 23.4617 21.7406 24.5245L21.7406 24.5245ZM21.7367 26.808C22.4884 27.6919 23.2571 28.5604 24.043 29.4135C23.8756 29.5959 23.7074 29.7774 23.5383 29.9579C22.9289 30.6069 22.3057 31.2431 21.6685 31.8665C20.8962 31.0176 20.1395 30.1536 19.3987 29.2744C19.9458 28.7406 20.4788 28.193 20.9975 27.6314C21.2473 27.3603 21.4937 27.0859 21.7367 26.808L21.7367 26.808ZM20.6091 32.8789C19.8848 33.5564 19.1448 34.2172 18.3892 34.8613C17.5868 34.0013 16.795 33.131 16.0136 32.2505C16.8095 31.6212 17.5821 30.9647 18.3314 30.2808C19.0747 31.1613 19.8339 32.0273 20.6091 32.8789L20.6091 32.8789ZM17.2612 35.8C16.6713 36.2798 16.073 36.7493 15.4663 37.2085C14.7335 36.2231 14.0317 35.2168 13.3609 34.1897C13.8635 33.8506 14.3586 33.5012 14.8461 33.1413C15.6399 34.0372 16.4449 34.9234 17.2612 35.8H17.2612ZM18.268 36.8695C18.9172 37.552 19.5717 38.2268 20.2314 38.894C20.3866 39.0507 20.5445 39.2058 20.7006 39.362C20.0183 39.9545 19.327 40.5364 18.6267 41.1077C17.8438 40.2201 17.0864 39.3087 16.3544 38.3733C17.0017 37.8839 17.6395 37.3826 18.268 36.8695L18.268 36.8695ZM21.744 40.3961C22.5437 41.1798 23.3537 41.9551 24.1739 42.7222C23.441 43.3527 22.6961 43.9689 21.9393 44.5709C21.1407 43.7997 20.365 43.0075 19.6124 42.1943C20.3323 41.6064 21.0428 41.007 21.744 40.3961ZM22.844 39.4226C23.5806 38.7597 24.3056 38.0848 25.0189 37.3979C25.8307 38.1739 26.6576 38.9353 27.4994 39.682C26.7744 40.386 26.0349 41.0757 25.2807 41.7509C24.4583 40.9837 23.646 40.2076 22.844 39.4226ZM28.6054 40.6493C29.3689 41.3058 30.143 41.9494 30.9276 42.58C30.7792 42.7384 30.6296 42.8957 30.479 43.0519C29.8953 43.6564 29.2933 44.2441 28.6728 44.8152C27.8956 44.1357 27.1252 43.4473 26.3616 42.7501C27.1242 42.0649 27.8722 41.3647 28.6054 40.6493ZM29.6491 39.6143C29.8552 39.4056 30.06 39.1958 30.2635 38.985C30.8699 38.3563 31.466 37.716 32.0518 37.0639C32.736 37.639 33.4286 38.2035 34.1295 38.7574C33.4264 39.6981 32.6877 40.61 31.9134 41.4929C31.1488 40.8792 30.3941 40.253 29.6491 39.6143ZM33.0213 35.9653C33.7569 35.1153 34.474 34.2491 35.1726 33.3666C35.7123 33.8319 36.2588 34.2878 36.8119 34.7343C36.2392 35.7021 35.6312 36.6468 34.988 37.5686C34.3248 37.0442 33.6693 36.5098 33.0213 35.9653ZM33.8872 25.014C33.1536 26.0186 32.3972 27.0089 31.6179 27.9847C31.5906 27.9562 31.5625 27.9282 31.5352 27.8996C30.7601 27.0895 30.0052 26.2572 29.2703 25.4028C29.9164 24.5406 30.5407 23.6635 31.1431 22.7715C32.1635 23.3794 33.0882 24.1351 33.8872 25.014ZM33.8882 16.3671C32.8875 17.4323 31.6909 19.0428 31.1126 21.0823C30.4259 20.7325 29.7102 20.4425 28.9737 20.2156C29.4306 19.2316 30.1142 18.3698 30.9685 17.7008C31.8227 17.0319 32.8232 16.5749 33.8882 16.3671ZM30.0237 6.42242C30.4951 5.92481 31.0357 5.49764 31.6288 5.15404C30.9648 6.73236 30.6469 8.43468 30.6966 10.1463C30.4701 10.2888 30.2447 10.4464 30.0205 10.6189C29.4851 11.0336 29.0005 11.5101 28.577 12.0386C28.5586 11.0963 28.4928 10.1556 28.3799 9.21988C28.71 8.17545 29.2719 7.21914 30.0237 6.42243V6.42242ZM20.2621 6.41489C20.9958 7.21489 21.5299 8.1771 21.8207 9.22292C21.6668 10.2092 21.5577 11.2024 21.4936 12.2022C21.0641 11.613 20.5583 11.0833 19.9897 10.6269C19.8607 10.5234 19.7309 10.4265 19.6007 10.3341C19.6688 8.54966 19.3439 6.77208 18.649 5.12715C19.2495 5.4713 19.7935 5.90561 20.2621 6.41489V6.41489ZM17.1462 11.6435C16.8281 11.2054 16.4824 10.7879 16.1113 10.3937C17.1946 10.6077 18.2105 11.0796 19.0728 11.7694C20.2448 12.7222 21.0809 14.0252 21.4588 15.4876C21.4603 15.4932 21.4624 15.4984 21.4639 15.504C21.4685 15.5201 21.4733 15.5361 21.4789 15.5518C21.4818 15.5599 21.4852 15.5678 21.4883 15.5759C21.4939 15.5898 21.4996 15.6036 21.506 15.6171C21.5104 15.6265 21.5153 15.6356 21.5201 15.6448C21.526 15.6561 21.5321 15.6674 21.5386 15.6784C21.5446 15.6886 21.551 15.6984 21.5575 15.7082C21.5638 15.7177 21.5702 15.7271 21.5769 15.7362C21.5842 15.7463 21.5919 15.756 21.5997 15.7656C21.6065 15.7741 21.6135 15.7824 21.6208 15.7906C21.6289 15.7998 21.6373 15.8086 21.6459 15.8174C21.6538 15.8255 21.6619 15.8334 21.6702 15.8411C21.6786 15.8488 21.6872 15.8564 21.6959 15.8637C21.7054 15.8718 21.7151 15.8796 21.7251 15.8871C21.7331 15.8932 21.7413 15.8992 21.7496 15.905C21.7609 15.9128 21.7724 15.9204 21.7841 15.9276C21.7918 15.9323 21.7995 15.9369 21.8074 15.9414C21.8201 15.9486 21.8331 15.9554 21.8463 15.9619C21.8539 15.9656 21.8615 15.9692 21.8692 15.9727C21.8827 15.9788 21.8965 15.9844 21.9105 15.9896C21.9187 15.9927 21.9268 15.9957 21.9351 15.9985C21.9486 16.003 21.9623 16.0071 21.9762 16.0109C21.9857 16.0134 21.9952 16.0159 22.0048 16.0181C22.0175 16.0209 22.0302 16.0235 22.0431 16.0257C22.0545 16.0277 22.066 16.0294 22.0775 16.0308C22.089 16.0322 22.1004 16.0334 22.112 16.0342C22.125 16.0352 22.1381 16.0359 22.1513 16.0362C22.1568 16.0363 22.1621 16.037 22.1676 16.037C22.1748 16.037 22.1822 16.0369 22.1894 16.0367C22.1918 16.0366 22.194 16.0362 22.1963 16.0361C22.209 16.0356 22.2217 16.0343 22.2344 16.0331C22.2469 16.032 22.2595 16.0311 22.2719 16.0293C22.2809 16.028 22.2899 16.026 22.299 16.0243C22.3148 16.0215 22.3307 16.0186 22.3462 16.0147C22.3478 16.0143 22.3494 16.0141 22.351 16.0137C22.3568 16.0122 22.3622 16.01 22.368 16.0084C22.3844 16.0037 22.4008 15.9989 22.4167 15.9932C22.4249 15.9902 22.4328 15.9867 22.4409 15.9835C22.4549 15.9778 22.4689 15.9722 22.4824 15.9657C22.4923 15.9611 22.5017 15.9558 22.5113 15.9507C22.5224 15.9449 22.5335 15.939 22.5442 15.9326C22.5551 15.9261 22.5656 15.919 22.576 15.912C22.5849 15.906 22.5938 15.9001 22.6025 15.8938C22.6133 15.8858 22.6236 15.8773 22.634 15.8687C22.6417 15.8623 22.6496 15.8559 22.6571 15.8492C22.667 15.8403 22.6763 15.831 22.6856 15.8217C22.6931 15.8143 22.7005 15.8069 22.7076 15.7992C22.7159 15.79 22.7238 15.7806 22.7317 15.771C22.739 15.7622 22.7463 15.7533 22.7533 15.7441C22.7599 15.7352 22.7661 15.7261 22.7724 15.7169C22.7796 15.7064 22.7868 15.6958 22.7934 15.6849C22.7986 15.6763 22.8033 15.6676 22.8082 15.6589C22.8148 15.6468 22.8214 15.6348 22.8274 15.6224C22.8315 15.6138 22.8352 15.6051 22.839 15.5964C22.8446 15.5835 22.8501 15.5707 22.855 15.5574C22.8584 15.5481 22.8614 15.5386 22.8644 15.5291C22.8686 15.5163 22.8727 15.5036 22.8761 15.4905C22.879 15.4795 22.8813 15.4683 22.8836 15.4571C22.8861 15.4454 22.8888 15.4337 22.8907 15.4217C22.8929 15.4083 22.8942 15.3948 22.8957 15.3812C22.8967 15.3711 22.898 15.3611 22.8987 15.3508C22.8996 15.3357 22.8996 15.3204 22.8996 15.3051C22.8996 15.2977 22.9003 15.2905 22.9001 15.2831C22.7711 10.9325 23.5393 6.60193 25.1567 2.56109C25.8696 4.3134 26.3937 6.13674 26.72 8.00018C27.1266 10.3243 27.2225 12.6922 27.0051 15.0415C27.0045 15.0479 27.0047 15.0542 27.0043 15.0605C27.0032 15.0773 27.0022 15.094 27.0022 15.1107C27.0022 15.1198 27.0029 15.1287 27.0032 15.1377C27.0038 15.1525 27.0044 15.1673 27.0058 15.1819C27.007 15.1931 27.0088 15.2041 27.0104 15.2152C27.0122 15.2273 27.0138 15.2395 27.0162 15.2515C27.0187 15.2642 27.0219 15.2766 27.0251 15.2891C27.0277 15.2992 27.0301 15.3095 27.0332 15.3195C27.0371 15.3327 27.0418 15.3455 27.0464 15.3584C27.0498 15.3676 27.053 15.3768 27.0566 15.3859C27.0618 15.3984 27.0676 15.4107 27.0734 15.4229C27.0778 15.4321 27.082 15.4412 27.0867 15.4502C27.0926 15.4615 27.0991 15.4723 27.1056 15.4832C27.1113 15.4928 27.1169 15.5024 27.123 15.5117C27.1294 15.5213 27.1361 15.5305 27.1429 15.5398C27.1502 15.5498 27.1574 15.5598 27.1652 15.5694C27.1718 15.5775 27.1787 15.5852 27.1856 15.593C27.1944 15.603 27.2031 15.6129 27.2125 15.6225C27.2195 15.6296 27.2269 15.6363 27.2342 15.6432C27.244 15.6524 27.2538 15.6616 27.2642 15.6703C27.2724 15.6772 27.281 15.6836 27.2896 15.6901C27.2996 15.6978 27.3095 15.7055 27.32 15.7127C27.3303 15.7198 27.341 15.7262 27.3517 15.7328C27.361 15.7385 27.3702 15.7444 27.3798 15.7497C27.3929 15.7569 27.4065 15.7634 27.42 15.7699C27.428 15.7736 27.4357 15.7776 27.4438 15.7811C27.4593 15.7878 27.4752 15.7936 27.4913 15.7992C27.4972 15.8013 27.5027 15.8039 27.5086 15.8058C27.5101 15.8063 27.5116 15.8065 27.5131 15.807C27.5273 15.8115 27.5419 15.8151 27.5565 15.8187C27.5667 15.8213 27.5768 15.8242 27.587 15.8263C27.5968 15.8283 27.6069 15.8296 27.6169 15.8312C27.6321 15.8337 27.6474 15.8362 27.6626 15.8377C27.664 15.8379 27.6654 15.8382 27.6669 15.8383C27.6732 15.8389 27.6795 15.8387 27.6859 15.8392C27.7023 15.8403 27.7187 15.8413 27.7351 15.8413C27.7463 15.8413 27.7574 15.8405 27.7685 15.8401C27.7808 15.8395 27.7931 15.8391 27.8052 15.8379C27.82 15.8365 27.8344 15.8342 27.8489 15.832C27.8573 15.8306 27.8656 15.8296 27.8739 15.828C27.8907 15.8247 27.9072 15.8206 27.9237 15.8162C27.9296 15.8146 27.9356 15.8132 27.9415 15.8115C27.9588 15.8064 27.9757 15.8004 27.9925 15.7941C27.9976 15.7922 28.0027 15.7904 28.0078 15.7884C28.0242 15.7818 28.0402 15.7744 28.056 15.7666C28.0615 15.7639 28.067 15.7614 28.0724 15.7586C28.0869 15.751 28.101 15.7428 28.1149 15.7343C28.1215 15.7303 28.128 15.7265 28.1344 15.7223C28.1466 15.7143 28.1583 15.7058 28.17 15.6971C28.1777 15.6915 28.1854 15.6859 28.1929 15.6799C28.2028 15.6719 28.2124 15.6634 28.2219 15.6549C28.2302 15.6474 28.2386 15.6401 28.2466 15.6323C28.2549 15.6241 28.2628 15.6155 28.2708 15.6069C28.279 15.5981 28.2872 15.5893 28.295 15.58C28.3025 15.5712 28.3094 15.5619 28.3165 15.5527C28.3237 15.5431 28.331 15.5337 28.3379 15.5238C28.3451 15.5133 28.3516 15.5024 28.3583 15.4915C28.3639 15.4823 28.3698 15.4732 28.375 15.4637C28.3822 15.4508 28.3885 15.4374 28.3949 15.4241C28.3988 15.4158 28.403 15.4078 28.4066 15.3994C28.4131 15.3843 28.4187 15.3687 28.4242 15.3531C28.4264 15.3469 28.4291 15.3411 28.4311 15.3348C28.8886 13.9287 29.7539 12.6904 30.917 11.7774C31.7796 11.1134 32.7808 10.6525 33.8462 10.429C32.3954 11.9878 31.3786 13.8997 30.8972 15.974C30.5889 16.1596 30.2932 16.3653 30.0119 16.5897C28.9282 17.4586 28.0752 18.5811 27.5285 19.858C25.8534 19.5399 24.1333 19.5407 22.4586 19.8605C21.9178 18.5836 21.0696 17.4603 19.9894 16.5908C19.7375 16.3891 19.4738 16.2026 19.1997 16.0322C18.8007 14.452 18.1037 12.9624 17.1462 11.6435L17.1462 11.6435ZM16.1079 16.3629C17.1734 16.5695 18.1743 17.0271 19.0277 17.6977C19.881 18.3682 20.5623 19.2326 21.015 20.219C20.331 20.4306 19.6651 20.6968 19.0237 21.0149C18.9528 20.9182 18.8813 20.822 18.8108 20.7252C18.7942 20.7025 18.7763 20.6808 18.7572 20.6602C18.1417 18.8174 17.0393 17.3536 16.1079 16.363L16.1079 16.3629ZM18.6153 22.9194C19.3191 23.8498 20.0423 24.7665 20.7847 25.6697C20.5013 25.9972 20.2132 26.3202 19.9204 26.6386C19.4469 27.1524 18.9604 27.6539 18.461 28.1431C17.6388 27.1347 16.8395 26.1102 16.0631 25.0694C16.8098 24.2377 17.6688 23.514 18.6153 22.9194L18.6153 22.9194ZM15.124 26.259C15.8602 27.2373 16.617 28.202 17.3943 29.153C16.6363 29.8461 15.8533 30.5111 15.0454 31.1481C14.5494 30.5774 14.059 30.0036 13.5741 29.4266C13.9288 28.299 14.4513 27.2311 15.124 26.259ZM13.165 31.2116C13.4006 31.4872 13.6377 31.7619 13.8765 32.0357C13.6003 32.238 13.3219 32.4373 13.0412 32.6336C13.0537 32.1575 13.095 31.6826 13.165 31.2116V31.2116ZM13.0371 36.6769V36.3335C13.4436 36.9218 13.8604 37.5033 14.2875 38.0779C13.9387 38.3294 13.5874 38.5775 13.2338 38.8224C13.1028 38.1147 13.037 37.3966 13.0371 36.6769ZM15.3376 43.6598C14.5914 42.6494 14.0115 41.5262 13.6197 40.3328C14.1435 39.9772 14.662 39.6142 15.1753 39.2438C15.9174 40.194 16.6864 41.1209 17.4822 42.0244C16.7755 42.5811 16.0606 43.1262 15.3376 43.6598ZM16.2794 44.7853C17.0167 44.2398 17.7458 43.6824 18.4668 43.1133C19.2129 43.9209 19.9809 44.7101 20.7708 45.4808C20.1514 45.9535 19.5249 46.4162 18.8914 46.8687C17.928 46.2991 17.0489 45.5979 16.2794 44.7853H16.2794ZM20.3672 47.6096C20.8651 47.2461 21.3587 46.8764 21.8479 46.5004C22.589 47.1871 23.3463 47.8546 24.12 48.503C22.829 48.4102 21.5616 48.1085 20.3672 47.6096H20.3672ZM23.0172 45.5849C23.7748 44.979 24.5207 44.3587 25.2547 43.7238C26.0201 44.4246 26.7931 45.1163 27.5738 45.7989C26.8477 46.4273 26.102 47.0319 25.3365 47.6128C24.5468 46.9579 23.7737 46.282 23.0172 45.5849H23.0172ZM26.7 48.4149C27.3795 47.8849 28.0441 47.3364 28.6937 46.7694C29.0167 47.0466 29.3406 47.3221 29.6655 47.596C28.7164 47.9956 27.7197 48.2709 26.7 48.4149H26.7ZM31.0903 46.8794C30.655 46.516 30.2215 46.1495 29.7897 45.78C30.3862 45.2245 30.9672 44.6542 31.5328 44.0693C31.7168 43.8787 31.899 43.6864 32.0794 43.4923C32.6303 43.9211 33.1858 44.3431 33.7457 44.7585C32.9654 45.5876 32.0714 46.3017 31.0903 46.8794H31.0903ZM34.6841 43.6304C34.1398 43.2272 33.5997 42.8179 33.0636 42.4023C33.8391 41.5158 34.5803 40.6001 35.2872 39.6553C35.6373 39.9222 35.9891 40.1862 36.3428 40.4473C35.9554 41.5867 35.3961 42.6601 34.6841 43.6304ZM36.7468 38.9223C36.5461 38.7719 36.3459 38.6205 36.1464 38.4683C36.4193 38.0784 36.6863 37.6844 36.9473 37.2861C36.9189 37.8355 36.8519 38.3823 36.7468 38.9223H36.7468ZM36.9629 32.9639C36.6637 32.7146 36.3666 32.4625 36.0717 32.2075C36.3281 31.8704 36.5815 31.5312 36.832 31.1901C36.9191 31.7704 36.9629 32.3564 36.9629 32.9432V32.9639Z" fill="#090909"/>
</g>
<defs>
<clipPath id="clip0_207_690">
<rect width="50" height="50" fill="white"/>
</clipPath>
</defs>
</svg>
