<svg width="24" height="24" viewBox="0 0 24 24" fill="none" xmlns="http://www.w3.org/2000/svg">
<path d="M19 7H16V6C16 4.93913 15.5786 3.92172 14.8284 3.17157C14.0783 2.42143 13.0609 2 12 2C10.9391 2 9.92172 2.42143 9.17157 3.17157C8.42143 3.92172 8 4.93913 8 6V7H5C4.73478 7 4.48043 7.10536 4.29289 7.29289C4.10536 7.48043 4 7.73478 4 8V19C4 19.7957 4.31607 20.5587 4.87868 21.1213C5.44129 21.6839 6.20435 22 7 22H17C17.7956 22 18.5587 21.6839 19.1213 21.1213C19.6839 20.5587 20 19.7957 20 19V8C20 7.73478 19.8946 7.48043 19.7071 7.29289C19.5196 7.10536 19.2652 7 19 7ZM10 6C10 5.46957 10.2107 4.96086 10.5858 4.58579C10.9609 4.21071 11.4696 4 12 4C12.5304 4 13.0391 4.21071 13.4142 4.58579C13.7893 4.96086 14 5.46957 14 6V7H10V6ZM18 19C18 19.2652 17.8946 19.5196 17.7071 19.7071C17.5196 19.8946 17.2652 20 17 20H7C6.73478 20 6.48043 19.8946 6.29289 19.7071C6.10536 19.5196 6 19.2652 6 19V9H8V10C8 10.2652 8.10536 10.5196 8.29289 10.7071C8.48043 10.8946 8.73478 11 9 11C9.26522 11 9.51957 10.8946 9.70711 10.7071C9.89464 10.5196 10 10.2652 10 10V9H14V10C14 10.2652 14.1054 10.5196 14.2929 10.7071C14.4804 10.8946 14.7348 11 15 11C15.2652 11 15.5196 10.8946 15.7071 10.7071C15.8946 10.5196 16 10.2652 16 10V9H18V19Z" fill="#090909"/>
<circle cx="17.5" cy="17.5" r="6.5" fill="#0B8BD5"/>
<path d="M15.5 20.995H20.2V20.29H16.62L19.18 17.98C19.53 17.6667 19.7867 17.3633 19.95 17.07C20.1167 16.7767 20.2 16.4033 20.2 15.95C20.2 15.52 20.0983 15.1317 19.895 14.785C19.695 14.4383 19.42 14.1633 19.07 13.96C18.7233 13.7533 18.3317 13.65 17.895 13.65C17.4517 13.65 17.0517 13.75 16.695 13.95C16.3417 14.1467 16.0617 14.4183 15.855 14.765C15.6483 15.1083 15.545 15.5 15.545 15.94H16.295C16.2917 15.6567 16.3583 15.395 16.495 15.155C16.635 14.915 16.825 14.7217 17.065 14.575C17.305 14.4283 17.5783 14.355 17.885 14.355C18.1817 14.355 18.4483 14.4267 18.685 14.57C18.9217 14.71 19.1083 14.9 19.245 15.14C19.385 15.38 19.455 15.6483 19.455 15.945C19.455 16.195 19.4083 16.435 19.315 16.665C19.2217 16.895 19.0367 17.135 18.76 17.385L15.505 20.325L15.5 20.995Z" fill="white"/>
</svg>
